<?xml version="1.0" encoding="UTF-8"?>
<svg id="Layer_5" data-name="Layer 5" xmlns="http://www.w3.org/2000/svg" viewBox="0 0 1025.07 1025.07">
  <defs>
    <style>
      .cls-1 {
        fill: #f5533d;
      }

      .cls-2 {
        fill: #fff;
      }

      .cls-3 {
        fill: #ce4536;
      }

      .cls-4 {
        fill: #124389;
      }

      .cls-5 {
        fill: #1c6ae8;
      }

      .cls-6 {
        fill: #493aa0;
      }

      .cls-7 {
        fill: #7556f4;
      }
    </style>
  </defs>
  <rect class="cls-2" x=".53" y=".53" width="1024" height="1024" rx="125.68" ry="125.68"/>
  <g>
    <g>
      <path class="cls-6" d="M376.37,714.13v71.94c0,103.99,73.92,188.29,165.11,188.29h260.44c63.01,0,114.09-58.25,114.09-130.11h0c0-71.86-51.08-130.11-114.09-130.11H376.37Z"/>
      <path class="cls-7" d="M376.37,714.13v63.08c0,91.19,73.92,165.11,165.11,165.1h260.44c63.01,0,114.09-51.08,114.09-114.09h0c0-63.01-51.08-114.09-114.09-114.09H376.37Z"/>
    </g>
    <g>
      <circle class="cls-3" cx="240.95" cy="844.24" r="92.77"/>
      <circle class="cls-1" cx="245.09" cy="836.27" r="84.8"/>
    </g>
    <g>
      <path class="cls-4" d="M233.92,50.71h17.58c68.91,0,124.86,55.95,124.86,124.86V714.13H235.26c-69.65,0-126.2-56.55-126.2-126.2V175.57c0-68.91,55.95-124.86,124.86-124.86Z"/>
      <path class="cls-5" d="M376.37,714.13h-63.08c-91.19,0-165.11-73.92-165.1-165.11V164.81c0-63.01,51.08-114.09,114.09-114.09h0c63.01,0,114.09,51.08,114.09,114.09V714.13Z"/>
    </g>
  </g>
</svg>
